<?xml version="1.0" encoding="UTF-8"?><svg id="_レイヤー_1" xmlns="http://www.w3.org/2000/svg" xmlns:xlink="http://www.w3.org/1999/xlink" viewBox="0 0 324 48"><defs><style>.cls-1,.cls-2{fill:none;}.cls-3{fill:#1c1c33;}.cls-2{clip-path:url(#clippath);}</style><clipPath id="clippath"><rect class="cls-1" x="2" y="1.83" width="320" height="44.34"/></clipPath></defs><g id="_グループ_397"><g class="cls-2"><g id="_グループ_4"><path id="_パス_1" class="cls-3" d="m35.42,32.71c0,8.29-6.73,12.62-16.46,12.62H3.69V2.07h14c9.19,0,16.1,4.03,16.1,12.14.04,3.67-2.15,6.99-5.53,8.41,4.29,1.5,7.16,5.55,7.15,10.09m-17.36-12.62c1.17.04,2.34-.08,3.48-.36,1.89-.79,3.05-2.71,2.88-4.75,0-3.6-2.46-5.53-6.13-5.53h-5.77v10.63h5.53Zm-5.53,17.84h6.85c3.67,0,6.55-2.04,6.55-5.83s-2.64-5.77-5.95-5.77h-7.45v11.59Z"/><path id="_パス_2" class="cls-3" d="m40.53,2.07h8.95v32.68c0,2.76,1.2,3.72,3,3.72,1.03-.02,2.04-.22,3-.6v7.39c-1.83.65-3.77.96-5.71.9-5.11,0-9.25-2.58-9.25-9.43V2.07Z"/><path id="_パス_3" class="cls-3" d="m78.5,45.33l-.24-3.42c-.06-.71.02-1.42.24-2.1h-.12c-2,3.82-5.91,6.25-10.21,6.37-6.79,0-10.45-4.15-10.45-12.08V15.29h9.01v17.31c0,3,.84,5.41,4.09,5.41,4.08,0,6.91-3.24,6.91-7.75v-14.97h8.95v30.04h-8.17Z"/><path id="_パス_4" class="cls-3" d="m119.65,28.51c-.01,1.23-.09,2.45-.24,3.66h-19.71c.36,4.09,3.49,6.43,8.35,6.43,3.58.01,7.13-.75,10.4-2.22v7.63c-3.54,1.54-7.38,2.27-11.24,2.16-10.33,0-16.82-6.67-16.82-15.86s6.67-15.86,15.26-15.86c9.25,0,14,6.61,14,14.06m-14.06-6.97c-3.6,0-5.65,2.76-5.89,6.01h11.36c.12-3.24-1.8-6.01-5.47-6.01"/><path id="_パス_5" class="cls-3" d="m151.44,28.51c-.01,1.23-.09,2.45-.24,3.66h-19.71c.36,4.09,3.49,6.43,8.35,6.43,3.58.01,7.13-.75,10.4-2.22v7.63c-3.54,1.54-7.38,2.27-11.24,2.16-10.33,0-16.82-6.67-16.82-15.86s6.67-15.86,15.26-15.86c2.53-.03,5.04.56,7.29,1.73,4.35,2.23,6.71,7.07,6.71,12.33m-14.06-6.97c-3.6,0-5.65,2.76-5.89,6.01h11.35c.12-3.24-1.8-6.01-5.47-6.01"/><path id="_パス_6" class="cls-3" d="m157.62,45.33V2.07h13.82c14.72,0,24.03,8.95,24.03,21.63s-9.25,21.63-23.91,21.63h-13.94Zm9.25-35.51v27.76h4.57c9.25,0,14.72-6.01,14.72-13.88s-5.47-13.88-14.84-13.88h-4.45Z"/><path id="_パス_7" class="cls-3" d="m206.17,1.83c2.53-.22,4.76,1.66,4.98,4.2.02.22.02.44,0,.67.11,2.55-1.87,4.71-4.42,4.82-.19,0-.38,0-.57-.01-3.06,0-4.99-1.92-4.99-4.81s1.92-4.87,4.99-4.87m4.51,43.5h-9.01V15.29h9.01v30.04Z"/><path id="_パス_8" class="cls-3" d="m218.91,15.29h8.17l.18,2.94c-.02.66,0,1.32.06,1.98,1.86-3.24,4.99-5.77,8.89-5.77.65-.02,1.29.04,1.92.18v8.77c-.63-.26-1.3-.38-1.98-.36-4.57,0-8.29,4.03-8.29,9.49v12.8h-8.95V15.29Z"/><path id="_パス_9" class="cls-3" d="m267.82,28.51c-.01,1.23-.09,2.45-.24,3.66h-19.71c.36,4.09,3.48,6.43,8.35,6.43,3.58.01,7.13-.75,10.39-2.22v7.63c-3.54,1.54-7.38,2.27-11.23,2.16-10.33,0-16.82-6.67-16.82-15.86s6.67-15.86,15.26-15.86c9.25,0,14,6.61,14,14.06m-14.06-6.97c-3.6,0-5.65,2.76-5.89,6.01h11.36c.12-3.24-1.8-6.01-5.47-6.01"/><path id="_パス_10" class="cls-3" d="m286.38,38.3c2.84-.08,5.6-.93,7.99-2.46v8.11c-2.83,1.49-5.99,2.25-9.19,2.22-9.61,0-15.98-6.73-15.98-15.86s6.37-15.86,15.98-15.86c3.14-.04,6.23.71,9.01,2.16v8.17c-2.31-1.56-5.02-2.42-7.81-2.46-4.75,0-8.11,3.12-8.11,7.99s3.24,7.99,8.11,7.99"/><path id="_パス_11" class="cls-3" d="m301.04,15.29V6.28h8.71v9.01h7.99v7.03h-7.99v12.08c0,3.18,1.86,4.27,3.85,4.27,1.77-.04,3.52-.47,5.11-1.26v7.39c-2.42.99-5.02,1.46-7.63,1.38-4.75,0-9.37-2.22-10.03-8.53-.06-.96-.18-1.98-.18-3.06v-12.26h-4.14v-7.03h4.32Z"/></g></g></g></svg>